# xmcd
#
# Track frame offsets:
#	150
#	23925
#	45704
#	67492
#	87836
#	101274
#	119043
#	137343
#	149748
#
# Disc length: 2233 seconds
#
# Revision: 1
# Processed by: cddbd v1.5.2PL0 Copyright (c) Steve Scherf et al.
# Submitted via: audiograbber 1.83.01
#
DISCID=8608b709
DTITLE=Robert Michaels - Robert Michaels cd2
DYEAR=2005
DGENRE=Jazz
TTITLE0=Brazilia
TTITLE1=Sunrise
TTITLE2=Cubamenco
TTITLE3=Appaloosa
TTITLE4=Savannah
TTITLE5=Luna
TTITLE6=Tu Si 'Na Cosa Grande
TTITLE7=The Matador
TTITLE8=Time and Place
EXTD=YEAR: 2005
EXTT0=
EXTT1=
EXTT2=
EXTT3=
EXTT4=
EXTT5=
EXTT6=
EXTT7=
EXTT8=
PLAYORDER=
